<svg width="23" height="23" viewBox="0 0 23 23" fill="none" xmlns="http://www.w3.org/2000/svg">
<path d="M16.6479 9.98988V13.6936C16.6479 13.9343 16.6386 14.1658 16.6108 14.388C16.3979 16.888 14.9256 18.1287 12.2127 18.1287H11.8423C11.6108 18.1287 11.3886 18.2399 11.2497 18.4251L10.1386 19.9065C9.64787 20.5639 8.85156 20.5639 8.36082 19.9065L7.2497 18.4251C7.12933 18.2676 6.86082 18.1287 6.65712 18.1287H6.28676C3.33305 18.1287 1.85156 17.3973 1.85156 13.6936V9.98988C1.85156 7.27692 3.10157 5.8047 5.59231 5.59173C5.81453 5.56395 6.04601 5.55469 6.28676 5.55469H12.2127C15.1664 5.55469 16.6479 7.03618 16.6479 9.98988Z" stroke="#2D3443" stroke-width="1.66667" stroke-miterlimit="10" stroke-linecap="round" stroke-linejoin="round"/>
<path d="M20.3511 6.28676V9.99046C20.3511 12.7127 19.1011 14.1756 16.6103 14.3886C16.6381 14.1664 16.6474 13.9349 16.6474 13.6942V9.99046C16.6474 7.03676 15.1659 5.55527 12.2122 5.55527H6.28624C6.0455 5.55527 5.81402 5.56453 5.5918 5.59231C5.80476 3.10157 7.27698 1.85156 9.98994 1.85156H15.9159C18.8696 1.85156 20.3511 3.33305 20.3511 6.28676Z" stroke="#2D3443" stroke-width="1.66667" stroke-miterlimit="10" stroke-linecap="round" stroke-linejoin="round"/>
<path d="M12.4959 12.2677H12.5042" stroke="#2D3443" stroke-width="1.66667" stroke-linecap="round" stroke-linejoin="round"/>
<path d="M9.25567 12.2677H9.264" stroke="#2D3443" stroke-width="1.66667" stroke-linecap="round" stroke-linejoin="round"/>
<path d="M6.01348 12.2677H6.02182" stroke="#2D3443" stroke-width="1.66667" stroke-linecap="round" stroke-linejoin="round"/>
</svg>
