<svg width="331" height="936" viewBox="0 0 331 936" fill="none" xmlns="http://www.w3.org/2000/svg">
<path d="M78 0.5H237C288.639 0.5 330.5 42.3614 330.5 94C330.5 145.639 288.639 187.5 237 187.5H165.5" stroke="black" stroke-opacity="0.3"/>
<path d="M165.5 187.5H94C42.3614 187.5 0.5 229.361 0.5 281C0.5 332.639 42.3614 374.5 94 374.5H165.5" stroke="black" stroke-opacity="0.3" stroke-dasharray="4 4"/>
<path d="M165.5 561.5H237C288.639 561.5 330.5 519.639 330.5 468C330.5 416.361 288.639 374.5 237 374.5H165.5" stroke="black" stroke-opacity="0.3" stroke-dasharray="4 4"/>
<path d="M165.5 561.5H94C42.3614 561.5 0.5 603.361 0.5 655C0.5 706.639 42.3614 748.5 94 748.5H165.5" stroke="black" stroke-opacity="0.3" stroke-dasharray="4 4"/>
<path d="M165.5 935.5H237C288.639 935.5 330.5 893.639 330.5 842C330.5 790.361 288.639 748.5 237 748.5H165.5" stroke="black" stroke-opacity="0.3" stroke-dasharray="4 4"/>
</svg>
