<svg width="16" height="16" viewBox="0 0 16 16" fill="none" xmlns="http://www.w3.org/2000/svg">
<path d="M5.52734 4.19398C5.24734 4.19398 5.02734 3.96732 5.02734 3.69398V1.83398C5.02734 1.56065 5.24734 1.33398 5.52734 1.33398C5.80734 1.33398 6.02734 1.56065 6.02734 1.83398V3.68732C6.02734 3.96732 5.80734 4.19398 5.52734 4.19398Z" fill="#8592AD"/>
<path d="M10.4727 4.19398C10.1927 4.19398 9.97266 3.96732 9.97266 3.69398V1.83398C9.97266 1.55398 10.1993 1.33398 10.4727 1.33398C10.7527 1.33398 10.9727 1.56065 10.9727 1.83398V3.68732C10.9727 3.96732 10.7527 4.19398 10.4727 4.19398Z" fill="#8592AD"/>
<path d="M13.046 3.00065C12.606 2.67398 11.9727 2.98732 11.9727 3.54065V3.60732C11.9727 4.38732 11.4127 5.10732 10.6327 5.18732C9.73268 5.28065 8.97268 4.57398 8.97268 3.69398V3.00065C8.97268 2.63398 8.67268 2.33398 8.30602 2.33398H7.69268C7.32602 2.33398 7.02602 2.63398 7.02602 3.00065V3.69398C7.02602 4.22065 6.75268 4.68732 6.33935 4.94732C6.27935 4.98732 6.21268 5.02065 6.14602 5.05398C6.08602 5.08732 6.01935 5.11398 5.94602 5.13398C5.86602 5.16065 5.77935 5.18065 5.68602 5.18732C5.57935 5.20065 5.47268 5.20065 5.36602 5.18732C5.27268 5.18065 5.18602 5.16065 5.10602 5.13398C5.03935 5.11398 4.97268 5.08732 4.90602 5.05398C4.83935 5.02065 4.77268 4.98732 4.71268 4.94732C4.29268 4.65398 4.02602 4.14732 4.02602 3.60732V3.54065C4.02602 3.02732 3.47935 2.72065 3.04602 2.94065C3.03935 2.94732 3.03268 2.94732 3.02602 2.95398C2.99935 2.96732 2.97935 2.98065 2.95268 3.00065C2.93268 3.02065 2.90602 3.03398 2.88602 3.05398C2.69935 3.20065 2.53268 3.36732 2.39268 3.54732C2.31935 3.62732 2.25935 3.71398 2.20602 3.80065C2.19935 3.80732 2.19268 3.81398 2.18602 3.82732C2.12602 3.91398 2.07268 4.01398 2.02602 4.10732C2.01268 4.12065 2.00602 4.12732 2.00602 4.14065C1.96602 4.22065 1.92602 4.30065 1.89935 4.38732C1.87935 4.42065 1.87268 4.44732 1.85935 4.48065C1.81935 4.58065 1.79268 4.68065 1.76602 4.78065C1.73935 4.87398 1.71935 4.97398 1.70602 5.07398C1.69268 5.14732 1.68602 5.22065 1.67935 5.30065C1.67268 5.39398 1.66602 5.48732 1.66602 5.58065V11.4206C1.66602 13.214 3.11935 14.6673 4.91268 14.6673H11.086C12.8793 14.6673 14.3327 13.214 14.3327 11.4206V5.58065C14.3327 4.52065 13.826 3.59398 13.046 3.00065ZM7.99935 11.614H4.90602C4.63268 11.614 4.40602 11.3873 4.40602 11.114C4.40602 10.834 4.63268 10.6073 4.90602 10.6073H7.99935C8.27935 10.6073 8.49935 10.834 8.49935 11.114C8.49935 11.3873 8.27935 11.614 7.99935 11.614ZM9.85268 9.14065H4.90602C4.63268 9.14065 4.40602 8.91398 4.40602 8.64065C4.40602 8.36065 4.63268 8.13398 4.90602 8.13398H9.85268C10.1327 8.13398 10.3593 8.36065 10.3593 8.64065C10.3593 8.91398 10.1327 9.14065 9.85268 9.14065Z" fill="#8592AD"/>
</svg>
